<?xml version="1.0" standalone="no"?>
<!DOCTYPE svg PUBLIC "-//W3C//DTD SVG 20010904//EN"
 "http://www.w3.org/TR/2001/REC-SVG-20010904/DTD/svg10.dtd">
<svg version="1.0" xmlns="http://www.w3.org/2000/svg"
 width="800.000000pt" height="800.000000pt" viewBox="0 0 800.000000 800.000000"
 preserveAspectRatio="xMidYMid meet">
<metadata>
Created by potrace 1.14, written by Peter Selinger 2001-2017
</metadata>
<g transform="translate(0.000000,800.000000) scale(0.100000,-0.100000)"
fill="#000000" stroke="none">
<path d="M3735 7993 c-1351 -89 -2569 -862 -3232 -2051 -233 -417 -394 -893
-462 -1367 -61 -424 -52 -885 25 -1305 197 -1068 826 -2013 1742 -2616 479
-316 1046 -531 1617 -613 424 -61 885 -52 1305 25 1067 197 2013 826 2616
1742 316 479 531 1046 613 1617 61 424 52 885 -25 1305 -214 1163 -943 2180
-1982 2762 -501 281 -1068 452 -1651 498 -124 9 -445 11 -566 3z m680 -337
c555 -67 1054 -240 1512 -522 812 -501 1401 -1299 1636 -2219 82 -318 111
-556 111 -905 1 -278 -8 -391 -50 -638 -237 -1414 -1311 -2577 -2709 -2935
-318 -82 -556 -111 -905 -111 -278 -1 -391 8 -638 50 -1414 237 -2577 1311
-2935 2709 -82 318 -111 556 -111 905 -1 278 8 391 50 638 219 1309 1159 2413
2424 2850 310 106 596 164 980 196 98 8 512 -4 635 -18z"/>
<path d="M2359 5826 c-132 -47 -198 -212 -135 -335 58 -111 215 -163 324 -107
112 58 164 215 108 324 -54 104 -188 157 -297 118z"/>
<path d="M5559 5826 c-132 -47 -198 -212 -135 -335 58 -111 215 -163 324 -107
112 58 164 215 108 324 -54 104 -188 157 -297 118z"/>
<path d="M2959 5306 c-132 -47 -198 -212 -135 -335 58 -111 215 -163 324 -107
112 58 164 215 108 324 -54 104 -188 157 -297 118z"/>
<path d="M4959 5306 c-132 -47 -198 -212 -135 -335 58 -111 215 -163 324 -107
112 58 164 215 108 324 -54 104 -188 157 -297 118z"/>
<path d="M2359 5186 c-132 -47 -198 -212 -135 -335 58 -111 215 -163 324 -107
112 58 164 215 108 324 -54 104 -188 157 -297 118z"/>
<path d="M5559 5186 c-132 -47 -198 -212 -135 -335 58 -111 215 -163 324 -107
112 58 164 215 108 324 -54 104 -188 157 -297 118z"/>
<path d="M3479 4826 c-132 -47 -198 -212 -135 -335 58 -111 215 -163 324 -107
112 58 164 215 108 324 -54 104 -188 157 -297 118z"/>
<path d="M4439 4826 c-132 -47 -198 -212 -135 -335 58 -111 215 -163 324 -107
112 58 164 215 108 324 -54 104 -188 157 -297 118z"/>
<path d="M2359 4546 c-132 -47 -198 -212 -135 -335 58 -111 215 -163 324 -107
112 58 164 215 108 324 -54 104 -188 157 -297 118z"/>
<path d="M5559 4546 c-132 -47 -198 -212 -135 -335 58 -111 215 -163 324 -107
112 58 164 215 108 324 -54 104 -188 157 -297 118z"/>
<path d="M3959 4346 c-132 -47 -198 -212 -135 -335 58 -111 215 -163 324 -107
112 58 164 215 108 324 -54 104 -188 157 -297 118z"/>
<path d="M2359 3906 c-132 -47 -198 -212 -135 -335 58 -111 215 -163 324 -107
112 58 164 215 108 324 -54 104 -188 157 -297 118z"/>
<path d="M5559 3906 c-132 -47 -198 -212 -135 -335 58 -111 215 -163 324 -107
112 58 164 215 108 324 -54 104 -188 157 -297 118z"/>
<path d="M2359 3266 c-132 -47 -198 -212 -135 -335 58 -111 215 -163 324 -107
112 58 164 215 108 324 -54 104 -188 157 -297 118z"/>
<path d="M5559 3266 c-132 -47 -198 -212 -135 -335 58 -111 215 -163 324 -107
112 58 164 215 108 324 -54 104 -188 157 -297 118z"/>
<path d="M2359 2626 c-132 -47 -198 -212 -135 -335 58 -111 215 -163 324 -107
112 58 164 215 108 324 -54 104 -188 157 -297 118z"/>
<path d="M5559 2626 c-132 -47 -198 -212 -135 -335 58 -111 215 -163 324 -107
112 58 164 215 108 324 -54 104 -188 157 -297 118z"/>
</g>
</svg>
